<?xml version="1.0" standalone="no"?>
<!DOCTYPE svg PUBLIC "-//W3C//DTD SVG 20010904//EN"
 "http://www.w3.org/TR/2001/REC-SVG-20010904/DTD/svg10.dtd">
<svg version="1.0" xmlns="http://www.w3.org/2000/svg"
 width="296.000000pt" height="306.000000pt" viewBox="0 0 296.000000 306.000000"
 preserveAspectRatio="xMidYMid meet">
<metadata>
Created by potrace 1.16, written by Peter Selinger 2001-2019
</metadata>
<g transform="translate(0.000000,306.000000) scale(0.100000,-0.100000)"
fill="#000000" stroke="none">
<path d="M135 3021 c-50 -23 -91 -70 -105 -121 -7 -26 -9 -481 -8 -1402 3
-1525 -3 -1395 75 -1455 l36 -28 1336 -3 c976 -2 1343 1 1363 9 40 16 96 82
103 121 3 18 4 650 3 1404 l-3 1370 -27 42 c-56 84 72 77 -1413 79 -1264 3
-1322 2 -1360 -16z m2722 -64 l38 -37 3 -1388 c2 -1361 2 -1388 -18 -1419 -10
-18 -31 -40 -47 -50 -26 -17 -92 -18 -1348 -18 -1276 0 -1321 1 -1351 19 -17
10 -40 33 -50 50 -18 30 -19 79 -22 1394 -2 1332 -2 1364 17 1407 12 27 33 53
53 65 33 20 42 20 1360 18 l1328 -3 37 -38z"/>
<path d="M768 2750 c-45 -13 -87 -49 -109 -93 -41 -79 -4 -193 74 -230 43 -21
119 -22 156 -2 69 35 111 122 92 190 -30 110 -116 164 -213 135z"/>
<path d="M625 2369 c-125 -21 -183 -70 -205 -172 -6 -29 -14 -169 -18 -312 -6
-238 -9 -264 -27 -290 -11 -17 -22 -54 -25 -85 l-5 -55 -77 -3 -78 -3 0 -283
0 -283 199 -8 198 -7 6 -86 c9 -112 21 -156 50 -171 34 -18 77 -10 99 19 30
40 39 132 47 486 8 321 18 417 33 309 3 -27 7 -171 7 -320 2 -305 12 -445 36
-481 17 -26 69 -33 105 -14 38 20 40 56 55 825 2 138 5 334 5 438 0 154 2 187
14 187 12 0 14 -34 13 -202 -1 -205 10 -314 36 -330 20 -13 54 -9 76 10 29 23
39 96 47 332 7 198 0 276 -38 379 -19 48 -25 55 -74 78 -30 14 -89 31 -132 39
-84 15 -268 17 -347 3z m-35 -584 c0 -256 -2 -295 -15 -295 -13 0 -15 39 -15
295 0 256 2 295 15 295 13 0 15 -39 15 -295z"/>
<path d="M2436 2300 c-98 -30 -146 -176 -93 -280 30 -61 97 -110 148 -110 54
0 90 21 124 71 39 60 46 101 28 162 -36 122 -118 184 -207 157z"/>
<path d="M2420 1841 c-44 -23 -76 -69 -96 -138 -16 -56 -13 -76 12 -66 9 3
-13 -30 -48 -73 -34 -44 -74 -96 -88 -116 -29 -44 -73 -65 -210 -102 -52 -14
-121 -33 -152 -43 -95 -27 -115 -71 -48 -106 71 -37 375 -6 452 47 41 27 202
216 268 314 57 85 62 116 24 161 -14 17 -21 31 -16 31 20 0 52 -53 52 -85 0
-41 -55 -126 -177 -274 l-95 -114 4 -82 3 -82 -145 -27 c-80 -16 -163 -37
-185 -47 -55 -25 -87 -78 -123 -207 -171 -605 -156 -534 -123 -566 38 -36 88
-35 124 2 15 15 27 32 27 38 0 5 27 86 60 179 32 94 71 209 86 256 l26 87 111
11 c62 6 165 15 230 20 176 14 250 55 249 140 -1 54 -18 89 -54 112 -29 18
-45 20 -143 16 -60 -2 -96 0 -80 4 17 3 66 7 110 8 67 1 87 -3 121 -23 l41
-23 17 231 c19 267 20 355 5 411 -27 100 -149 154 -239 106z"/>
<path d="M2717 1734 c-4 -4 -7 -77 -7 -163 0 -86 -3 -294 -7 -464 l-6 -307
-294 0 -293 0 0 -280 0 -280 40 0 40 0 0 225 0 225 255 0 255 0 2 -223 3 -222
30 0 30 0 3 743 c1 449 -2 742 -7 742 -5 0 -16 2 -23 5 -8 3 -17 2 -21 -1z"/>
<path d="M1162 1123 l3 -28 113 -3 112 -3 0 -424 0 -425 50 0 50 0 0 425 0
425 280 0 280 0 0 30 0 30 -446 0 -445 0 3 -27z"/>
</g>
</svg>
